<?xml version="1.0" encoding="UTF-8"?>
<svg id="Layer_1" xmlns="http://www.w3.org/2000/svg" version="1.1" viewBox="0 0 854.3 174.5">
  <!-- Generator: Adobe Illustrator 29.8.2, SVG Export Plug-In . SVG Version: 2.1.1 Build 3)  -->
  <defs>
    <style>
      .st0 {
        fill: #fff;
      }

      .st1 {
        fill: #fdfdfd;
      }
    </style>
  </defs>
  <g>
    <path class="st0" d="M334.1,135.9c-2.9,0-6.8,0-11.8,0-1.8,0-3-.8-3.6-2.5-.2-.5-1.3-4.4-3.3-11.5-.3-.9-1.1-1.6-2.1-1.6h-21c-1,0-1.8.7-2.1,1.6-.4,1.2-1.4,5-3.2,11.3-.5,1.7-1.6,2.5-3.5,2.5-6.7,0-11,0-12.7,0-4.3,0-4-3-3.2-6.4,2.4-9.9,5.1-19.8,8.2-29.7,1.8-5.7,3.4-11.4,4.9-17,2.6-9.8,4.2-15.5,4.7-17.1,0-.3,0-.6-.3-.6,0,0,0,0-.2,0h-5.1c-1.1,0-2-.9-2-2v-5.7c0-1.4,1.2-2.6,2.6-2.6h7.5c.6,0,1.1-.4,1.3-1,1.2-3.8,2.2-7.6,3.2-11.3.5-2.1,1.7-3.2,3.6-3.2,5.8-.2,9.9-.2,12.5,0,1.8,0,3,.9,3.6,2.6,1.3,3.6,2.6,7.7,3.9,12.3.2.5.6.9,1.2.9h6.7c1.7,0,3,1.3,3,3v5.6c0,.8-.6,1.4-1.4,1.4h-5c-.4,0-.7.3-.7.7s0,.1,0,.2c2,7.8,4.1,15,6.2,21.6,5,15.8,8.5,29.3,13.1,44.6,1,3.3-2.3,4.1-5,4.1Z"/>
    <path class="st0" d="M389.9,104.7c0,.2.3.2.4.2.1,0,.2-.2.2-.3-.2-16.8-.3-31.8-.2-45.2,0-3.3,1.9-4.1,5-4.2,7.2,0,11.1-.1,11.7-.1,1.1,0,2.1.6,2.7,1.5.4.5.5,1.5.5,3-.1,21.1-.1,49.9,0,86.6,0,3.6-.5,5.6-4.5,5.7-3.9.1-7.9.2-12.2.2-.3,0-.6,0-.9-.2-1.4-.6-2.6-1.9-3.6-4-.7-1.5-7.4-16.2-20-43.9-.2-.5-.4-.8-.7-.9-.2-.1-.6,0-.7.2,0,0,0,.2,0,.3.3,18,.4,32.4.2,43.4,0,3.5-1.4,4.8-4.9,4.9-7.3.1-11.2.2-11.6.1-1.6-.3-2.7-1.3-3.1-2.9,0,0,0-.2,0-.3,0-28.2,0-56.6,0-85.1,0-3.8-.5-6.7,2.3-8.4.4-.2,1.6-.3,3.7-.3,3.7,0,7.3,0,10.9.2,1.5,0,2.7,1,3.6,2.9,7.4,15.8,14.6,31.4,21.5,46.5Z"/>
    <path class="st0" d="M461,94.5c0,.2.3.2.4.2.1,0,.2-.2.2-.3-.2-16.8-.3-31.8-.2-45.2,0-3.3,1.9-4.1,5-4.2,7.2,0,11.1-.1,11.7-.1,1.1,0,2.1.6,2.7,1.5.4.5.5,1.5.5,3-.1,21.1-.1,49.9,0,86.6,0,3.6-.5,5.6-4.5,5.7-3.9.1-7.9.2-12.2.2-.3,0-.6,0-.9-.2-1.4-.6-2.6-1.9-3.6-4-.7-1.5-7.4-16.2-20-43.9-.2-.5-.4-.8-.7-.9-.2-.1-.6,0-.7.2,0,0,0,.2,0,.3.3,18,.4,32.4.2,43.4,0,3.5-1.4,4.8-4.9,4.9-7.3.1-11.2.2-11.6.1-1.6-.3-2.7-1.3-3.1-2.9,0,0,0-.2,0-.3,0-28.2,0-56.6,0-85.1,0-3.8-.5-6.7,2.3-8.4.4-.2,1.6-.3,3.7-.3,3.7,0,7.3,0,10.9.2,1.5,0,2.7,1,3.6,2.9,7.4,15.8,14.6,31.4,21.5,46.5Z"/>
    <path class="st0" d="M537.7,147.3c-8.3,0-22.6,0-42.9.1-4,0-4.8-2.3-4.8-6,0-28.4-.1-57.1,0-86.3,0-1.9.7-3.3,2-4.3.3-.2.6-.3,1-.3,6.1-.2,21.1-.2,45-.2,3.2,0,4.9,1.4,4.9,4.3,0,1.1,0,5,.1,11.7,0,3.9-2.2,4.7-5.8,4.8-10.3.2-18.8.2-25.5,0-.8,0-1.5.6-1.5,1.4v15.4c0,.5.4.9.8.9,7,.5,14.6.5,22.8.1,3.6-.2,4.3,2.2,4.2,5.5,0,5.5,0,9.3,0,11.5,0,.3,0,.5,0,.8-.5,1.9-2,2.8-4.6,2.8-8.7-.2-14.9-.2-18.7-.2-.9,0-2.1.2-3.6.7-.3.1-.6.4-.6.8v14.4c0,.8.6,1.4,1.4,1.4,10.3,0,19.4,0,27.4.2,2.4,0,3.6,1.3,3.6,3.7.1,6.1.2,10,.3,11.8.2,4.2-1.5,5-5.5,5Z"/>
    <path class="st0" d="M853.4,92.4c-2.3,11.7-8.9,19.5-19.9,23.6-5.1,1.9-10.3,1.9-16,2.1-.9,0-1.6.7-1.6,1.6,0,4.6,0,12.2.2,22.9,0,3.9-2.2,4.9-6,4.8-1.9,0-5,0-9.5,0-3.1,0-5.2-1.1-5.2-4.4-.2-18.7-.2-48-.2-87.7,0-4.8,2.2-5,6.4-5.1,9-.1,15.4-.1,19.3,0,16.1.5,26.6,7.7,31.5,21.9,2.1,6,2.4,12.7.9,20.2Z"/>
    <g>
      <path class="st0" d="M225.5,93.3s0,0,.1,0c0,0,0,0,0,0,0,0,0,0,0,0Z"/>
      <path class="st0" d="M225.2,93.5s0,0,0,0c0,0,0,0,0,0Z"/>
      <path class="st0" d="M229.4,89.4c0,0,0-.1,0-.2,0,0,0,.1,0,.2Z"/>
      <path class="st0" d="M229.5,89.8c0,0,0-.1,0-.2,0,0,0,.1,0,.2,0,0,0,0,0,0Z"/>
      <path class="st0" d="M225.7,93.2c0,0,.1,0,.2,0,0,0-.1,0-.2,0Z"/>
      <path class="st0" d="M226.3,93.3c0,0,.2.2.2.3,0-.1-.1-.2-.2-.3Z"/>
      <path class="st0" d="M221.2,93.6s0,0,0,0c0,0,0,0,0,0Z"/>
      <path class="st0" d="M216.3,89.3s0,0-.1,0c0,0,0,0,.1,0Z"/>
      <path class="st0" d="M215.8,89.2c0,0,.2,0,.2,0,0,0,0,0-.1,0,0,0,0,0-.1,0Z"/>
      <path class="st0" d="M216.7,89.9c0,0,0-.1,0-.2,0,0,0,.1,0,.2Z"/>
      <path class="st0" d="M220.1,93.7s0,0,.1-.1c0,0-.1,0-.1.1Z"/>
      <path class="st0" d="M216.5,89.4s0,0,.1.1c0,0,0,0-.1-.1Z"/>
      <path class="st0" d="M220.6,93.4c0,0,.1,0,.2,0,0,0,0,0-.2,0,0,0,0,0,0,0Z"/>
      <path class="st0" d="M227.8,84.6c-.8-.1-1.5-.5-2.1-1,.6.5,1.3.9,2.1,1Z"/>
      <path class="st0" d="M224.9,87.3c0,.6-.2,1.2-.5,1.7.3-.4.5-1,.5-1.7,0-.9-.5-1.6-1.1-2,.6.4,1.1,1.1,1.1,2Z"/>
      <path class="st0" d="M221.7,85.5c.2-.2.4-.3.7-.4-.3,0-.5.2-.7.4Z"/>
      <path class="st0" d="M222.8,85.1h0s0,0,0,0c0,0,0,0,0,0Z"/>
      <path class="st0" d="M229.6,88.8s0,0,.1-.1c0,0,0,0-.1.1Z"/>
      <path class="st0" d="M216.6,77.1c-.7,0-1.4.2-2,.6.6-.4,1.3-.6,2-.6h0Z"/>
      <path class="st0" d="M220.9,87.5c0-.8.3-1.5.8-2-.5.4-.8,1.2-.8,2,0,.3,0,.6.2.9-.1-.3-.2-.6-.2-.9Z"/>
      <path class="st0" d="M221.4,88.9c-.1-.1-.2-.3-.3-.5,0,.2.2.3.3.5Z"/>
      <path class="st0" d="M231.9,81.8c-.2.8-.6,1.4-1.2,1.9.6-.5,1-1.2,1.2-1.9Z"/>
      <path class="st0" d="M227.1,76.3c-.3,0-.5.2-.7.3.2-.1.5-.2.7-.3t0,0Z"/>
      <path class="st0" d="M218.9,78.5c.3.4.5.8.6,1.3-.1-.5-.4-.9-.6-1.3Z"/>
      <path class="st0" d="M224.8,82.3c-.1-.3-.2-.5-.3-.8-.2-.8-.2-1.7,0-2.5-.2.8-.2,1.6,0,2.5,0,.3.2.5.3.8Z"/>
      <path class="st0" d="M229.4,84.5c.3,0,.5-.2.7-.3-.2.1-.5.2-.7.3h0Z"/>
      <path class="st0" d="M216.4,95.5c0-.2,0-.3,0-.5,0,.2,0,.3,0,.5Z"/>
      <path class="st0" d="M225,77.8c0,0,.1-.2.2-.3,0,0-.1.2-.2.3Z"/>
      <path class="st0" d="M224.9,95.6s0,0,0,0c0,0,0,0,0,0Z"/>
      <path class="st0" d="M226.2,93.2c0,0-.2,0-.2,0,0,0,.2,0,.2,0Z"/>
      <path class="st0" d="M227.9,95.9s0,0,0,0c0,0,0,0,0,0Z"/>
      <path class="st0" d="M224.5,96.1s0,0,0,0c0,0,0,0,0,0Z"/>
      <path class="st0" d="M223.2,96.7c-.2,0-.4,0-.5-.1.2,0,.3.1.5.1Z"/>
      <path class="st0" d="M223.5,96.7s0,0,0,0c0,0-.1,0-.2,0,0,0,0,0,.1,0Z"/>
      <path class="st0" d="M224.1,96.5s0,0,0,0c0,0,0,0,0,0Z"/>
      <path class="st0" d="M229.5,89s0,0,0,.1c0,0,0,0,0-.1Z"/>
      <path class="st0" d="M228.3,96c0,0-.1,0-.2,0,0,0,.1,0,.2,0Z"/>
      <path class="st0" d="M216.6,96c0-.1-.2-.3-.2-.4,0,.1.1.3.2.4Z"/>
      <path class="st0" d="M229.3,95.5c0,.1-.1.2-.2.3,0,0,.2-.2.2-.3Z"/>
      <path class="st0" d="M228.9,96s0,0,.1,0c0,0-.1,0-.2.1,0,0,0,0,0,0Z"/>
      <path class="st0" d="M228.7,96c0,0-.1,0-.2,0,0,0,.1,0,.2,0Z"/>
      <path class="st0" d="M217.9,96.7s0,0,0,0c0,0,0,0,0,0,0,0,0,0,0,0Z"/>
      <path class="st0" d="M217.7,96.7c0,0-.1,0-.2,0,0,0,.1,0,.2,0Z"/>
      <path class="st0" d="M222.6,96.5c-.2,0-.3-.2-.4-.3.1.1.3.2.4.3Z"/>
      <path class="st0" d="M217,96.4c-.1,0-.2-.2-.3-.3,0,.1.2.2.3.3Z"/>
      <path class="st0" d="M218.9,96.4s0,0,0,0c0,0,0,0,0,0Z"/>
      <path class="st0" d="M217.4,96.6c-.2,0-.3-.1-.4-.2.1,0,.3.2.4.2Z"/>
      <path class="st0" d="M218.4,96.7s0,0,0,0c0,0,0,0,0,0Z"/>
      <path class="st0" d="M221.8,95.7c0-.2-.1-.3-.2-.5,0,.2,0,.4.2.5Z"/>
      <path class="st0" d="M222.1,96.2c-.1-.1-.2-.3-.3-.4,0,.2.2.3.3.4Z"/>
      <path class="st0" d="M219.3,96s0,0,0,0c0,0,0,0,0,0Z"/>
      <path class="st0" d="M221.4,93.8s0,0,0,0c0,0,0,0,0,0Z"/>
      <path class="st0" d="M221,93.5s0,0,0,0c0,0,0,0,0,0Z"/>
      <path class="st0" d="M220.6,93.4c0,0-.2,0-.2,0,0,0,.1,0,.2,0Z"/>
      <path class="st0" d="M220.1,93.7c0,0,0,.2-.1.2,0,0,0-.2.1-.2Z"/>
      <path class="st0" d="M214.9,100.9c0,0,0,.2,0,.3,0,0,0-.2,0-.3Z"/>
      <path class="st0" d="M214.2,100.2c0,0,.1,0,.2.1,0,0-.1,0-.2-.1Z"/>
      <path class="st0" d="M214.6,100.4c0,0,.1.1.2.2,0,0,0-.1-.2-.2Z"/>
      <path class="st0" d="M238.3,104.7c.1,0,.2.2.3.3,0-.1-.2-.2-.3-.3Z"/>
      <path class="st0" d="M238.7,105.2s0,0,0-.1c0,0,0,.2,0,.2,0,0,0,0,0-.1Z"/>
      <path class="st0" d="M210,107.8c0,0,0,0-.1,0,0,0,0,0,.1,0Z"/>
      <path class="st0" d="M209.4,107.4s0-.1-.1-.2c0,0,0,.1.1.2Z"/>
      <path class="st0" d="M238.7,106.1c0,0,0,.2-.1.2,0,0,0-.1.1-.2Z"/>
      <path class="st0" d="M209.7,107.6c0,0,0,0-.1-.1,0,0,0,0,.1.1Z"/>
      <path class="st0" d="M213.8,100c0,0-.2,0-.2,0,.1,0,.3,0,.4,0,0,0,0,0-.1,0Z"/>
      <path class="st0" d="M209.1,107.1c0-.1-.1-.2-.2-.3,0,.1.1.2.2.3Z"/>
      <path class="st0" d="M208.8,106.1c0-.2,0-.3,0-.5,0,.2,0,.3,0,.5Z"/>
      <path class="st0" d="M208.9,106.7c0-.2,0-.3-.1-.5,0,.2,0,.3.1.5Z"/>
      <path class="st0" d="M238.8,105.6c0,0,0,.2,0,.2,0,0,0-.2,0-.2Z"/>
      <path class="st0" d="M238.3,117.4s0-.1,0-.2c0,0,0,0,0,0,0,0,0,0,0,0Z"/>
      <path class="st0" d="M220.7,110.9s0,0,0,0c0,0,0,0,0,0Z"/>
      <path class="st0" d="M238.2,117.1s0,0,0-.1c0,0,0,0,0,.1Z"/>
      <path class="st0" d="M220.7,111.2c0,0-.1.2-.2.2,0,0,.2-.1.2-.2Z"/>
      <path class="st0" d="M216,85.2h0s0,0-.1,0c0,0,0,0,.1,0Z"/>
      <path class="st0" d="M228.9,110.7s0,0,0,0c0,0,0,0,0,0,0,0,0,0,0,0Z"/>
      <path class="st0" d="M240.1,115c0,0,0,.2,0,.2,0,0,0-.2,0-.2Z"/>
      <path class="st0" d="M240.1,114.6c0,0,0,.2,0,.2,0,0,0-.2,0-.2Z"/>
      <path class="st0" d="M240,114.2c0-.1-.1-.2-.2-.3.1.1.2.2.2.4,0,0,0,0,0,0Z"/>
      <path class="st0" d="M220.7,110.7s0,0,0,0c0,0,0,0,0,0,0,0,0,0,0,0Z"/>
      <path class="st0" d="M228.8,110.6s0,0,0,0c0,0,0,0,0,0Z"/>
      <path class="st0" d="M238.5,106.5s0,0,0,0c0,0,0,0,0,0Z"/>
      <path class="st0" d="M238.3,116.7s0,0,0,0c0,0,0,0,0,0Z"/>
      <path class="st0" d="M238.3,116.8s0,0,0,.1c0,0,0,0,0-.1Z"/>
      <path class="st0" d="M239.9,115.5c0,0,0,.2-.2.2,0,0,.1-.1.2-.2Z"/>
      <path class="st0" d="M237.4,120.3c0,0-.1,0-.2,0,0,0,.1,0,.2,0Z"/>
      <path class="st0" d="M237,120.4c0,0-.2,0-.2,0,0,0,.2,0,.2,0Z"/>
      <path class="st0" d="M237.8,120.2c0,0,.2,0,.2-.1-.1,0-.2.1-.3.2,0,0,0,0,.1,0Z"/>
      <path class="st0" d="M214.6,77.7c-1,.7-1.6,1.8-1.7,3.2h0c0-1.4.8-2.6,1.7-3.2Z"/>
      <path class="st0" d="M214.2,84.4c-.7-.6-1.2-1.6-1.3-2.6.1,1.1.6,2,1.3,2.6Z"/>
      <path class="st0" d="M218.9,78.5c-.6-.8-1.4-1.3-2.3-1.3.9,0,1.8.6,2.3,1.3Z"/>
      <path class="st0" d="M210.4,107.9s0,0,0,0c0,0,0,0,0,0,0,0,0,0,0,0Z"/>
      <path class="st0" d="M217.4,84.9c.6-.3,1.2-.7,1.6-1.4-.4.6-1,1.1-1.6,1.4Z"/>
      <path class="st0" d="M219.4,82.9c.2-.5.3-1,.4-1.6s0-1.1-.2-1.6c.1.5.2,1,.2,1.6,0,.6-.2,1.1-.4,1.6Z"/>
      <path class="st0" d="M215,84.9c-.3-.1-.6-.3-.8-.5.2.2.5.4.8.5Z"/>
      <path class="st0" d="M210.1,114.2s0,0,0,0c0,0,0,0,.1-.1,0,0,0,0-.1.1Z"/>
      <path class="st0" d="M210.3,113.9s0,0,.2,0c0,0-.1,0-.2,0Z"/>
      <path class="st0" d="M211,113.7c0,0,.1,0,.2,0,0,0-.1,0-.2,0Z"/>
      <path class="st0" d="M210.6,113.7c0,0,.1,0,.2,0,0,0-.1,0-.2,0Z"/>
      <path class="st0" d="M211,107.9s0,0-.1,0c0,0,0,0,.1,0Z"/>
      <path class="st0" d="M220.7,111.2s0,0,0-.1c0,0,0,0,0,.1Z"/>
      <path class="st0" d="M235.2,120.1c0,0-.1,0-.2-.1,0,0,.1,0,.2.1Z"/>
      <path class="st0" d="M235.6,120.3c0,0-.1,0-.2,0,0,0,.1,0,.2,0Z"/>
      <path class="st0" d="M236.1,120.4c0,0-.1,0-.2,0,0,0,.1,0,.2,0Z"/>
      <path class="st0" d="M234.9,119.8c0,0-.1-.1-.2-.2,0,0,.1.1.2.2Z"/>
      <path class="st0" d="M236.5,120.5c0,0-.2,0-.2,0,0,0,.2,0,.2,0Z"/>
      <path class="st0" d="M246.3,92.8c-.5-.4-.7-1-.4-1.6.7-1.8,2.2-4.5,2.8-7,1.8-8.6.5-16-4.1-22.3-4.7-6.6-13.5-10.9-21.3-11.2-4.8-.2-12-.3-21.5-.4-.2,0-.4,0-.6,0-2,.6-3,1.8-3,3.6,0,19.5,0,48.3.2,86.3,0,4,.4,6.7,4.9,6.8,9,.2,16.5.3,22.6.1,18.2-.4,33.1-9.5,32.7-29.5-.2-10.3-4.3-18.7-12.2-25ZM216.8,67.7c7.8-2.7,19.7-.7,18.8,10.2-.3,4.4.2,9.3-4.3,10.3-.8.2-1.3.3-1.4.4,0,0,0,0-.1.1,0,0,0,0-.1.1,0,0,0,0,0,.1,0,0,0,0,0,.1,0,0,0,.1,0,.2,0,0,0,.1,0,.2,0,0,0,.1,0,.2,0,0,0,.1,0,.2.9,1.7.8,3.6-.2,5.8,0,.1-.1.2-.2.3,0,0,0,0,0,0,0,0,0,0-.1,0,0,0,0,0,0,0,0,0-.1,0-.2,0,0,0-.1,0-.2,0,0,0-.1,0-.2,0,0,0-.1,0-.2,0,0,0,0,0,0,0,0,0,0,0-.1,0,0,0,0,0,0,0,0,0-.2-.2-.2-.3l-1.1-2c0-.1-.1-.2-.2-.3,0,0,0,0,0,0,0,0-.2,0-.2,0,0,0,0,0-.1,0,0,0-.1,0-.2,0,0,0-.1,0-.2,0,0,0,0,0-.1,0,0,0-.1.1-.2.2,0,0,0,0,0,0,0,.1-.1.2-.1.3v1.2c-.1.2-.2.4-.2.5,0,0,0,0,0,0,0,.2-.2.3-.3.4,0,0,0,0,0,0-.1.1-.3.2-.4.3,0,0,0,0,0,0-.2,0-.3.1-.5.1,0,0,0,0,0,0,0,0,0,0-.1,0,0,0,0,0-.1,0,0,0,0,0,0,0-.2,0-.4,0-.5-.1,0,0,0,0,0,0-.2,0-.3-.2-.4-.3,0,0,0,0,0,0-.1-.1-.2-.3-.3-.4,0,0,0,0,0,0,0-.2-.1-.3-.2-.5v-1.1c-.2,0-.2-.2-.2-.3,0,0,0,0,0,0,0,0,0-.1-.1-.1,0,0,0,0,0,0,0,0-.1,0-.2-.1,0,0,0,0,0,0,0,0-.1,0-.2,0,0,0-.1,0-.2,0,0,0,0,0,0,0,0,0-.2,0-.2,0,0,0,0,0,0,0,0,0-.1,0-.1.1,0,0,0,0,0,0,0,0,0,.2-.1.2l-.5,1.6c0,.2-.1.3-.2.4,0,0,0,0,0,0,0,.1-.2.2-.3.3,0,0,0,0,0,0-.1,0-.3.2-.4.2,0,0,0,0,0,0-.2,0-.3,0-.5,0,0,0,0,0,0,0,0,0,0,0,0,0,0,0-.1,0-.2,0,0,0-.1,0-.2,0,0,0,0,0,0,0,0,0,0,0,0,0-.2,0-.3-.1-.4-.2,0,0,0,0,0,0-.1,0-.2-.2-.3-.3,0,0,0,0,0,0,0-.1-.1-.3-.2-.4,0,0,0,0,0,0,0-.2,0-.3,0-.5l.4-4.9c0,0,0-.2,0-.2,0,0,0-.1,0-.2,0,0,0,0,0-.1,0,0,0,0-.1-.1,0,0,0,0-.1-.1,0,0,0,0-.1,0,0,0-.1,0-.2,0,0,0-.2,0-.2,0-5.3.3-5.4-3.4-6.2-7.3-1.3-6.6.6-11.8,7.3-14.1ZM239.8,115.7s0,0,0,0c0,0-.2.2-.3.2l-.9.5c0,0,0,0-.1.1,0,0,0,0,0,0,0,0,0,0,0,.1,0,0,0,0,0,.1,0,0,0,0,0,.1,0,0,0,0,0,.1,0,0,0,0,0,.1,0,0,0,.1,0,.2.8,1.1.6,2-.3,2.6,0,0-.1,0-.2.1,0,0,0,0-.1,0,0,0-.2,0-.2.1,0,0-.1,0-.2,0,0,0-.2,0-.2,0,0,0-.2,0-.2,0,0,0-.2,0-.2,0,0,0-.2,0-.2,0,0,0-.2,0-.2,0,0,0-.1,0-.2,0,0,0-.1,0-.2,0,0,0-.1,0-.2,0,0,0-.1,0-.2-.1,0,0-.1,0-.2-.1,0,0-.1,0-.2-.2,0,0-.1-.1-.2-.2,0,0,0,0,0,0,0,0,0-.1-.1-.2-.1-.2-.3-.7-.6-1.6-.1-.4-.4-.7-.7-.9l-7.9-3.9c-.2-.1-.5-.1-.8,0l-7.8,4.1c-.6.3-1,.9-1,1.6,0,2.2-1.3,3.1-3.7,2.6-.4,0-.6-.4-.6-.8.1-1.5-.5-2.5-1.8-3.3-.4-.2-.6-.7-.4-1.1l.9-1.8s0,0,0,0c0,0,0,0,.1-.1,0,0,0-.1.1-.1,0,0,0,0,.2,0,0,0,0,0,.1,0,0,0,.1,0,.2,0,0,0,.1,0,.2,0,0,0,.1,0,.2,0,0,0,.1,0,.2,0,0,0,0,0,0,0l1.6.8c.6.3,1.2.3,1.7,0l5.9-3.1c0,0,.2-.1.2-.2,0,0,0,0,0,0,0,0,0,0,0-.1,0,0,0,0,0,0,0,0,0,0,0,0,0,0,0,0,0-.1,0,0,0,0,0,0,0,0-.1-.2-.2-.2l-5.8-2.9c0,0-.2,0-.2,0-.9-.2-1.9-.1-2.8.3-.2,0-.3.1-.5.1,0,0,0,0-.1,0-.2,0-.3,0-.5,0,0,0,0,0,0,0,0,0,0,0,0,0-.1,0-.3,0-.4-.1,0,0,0,0-.1,0,0,0-.1,0-.2-.1,0,0,0,0-.1-.1,0,0-.1,0-.2-.1,0,0,0-.1-.1-.2,0,0,0,0-.1-.1,0-.1-.1-.2-.2-.3,0,0,0,0,0,0,0,0,0,0,0,0,0-.1,0-.3-.1-.5,0,0,0,0,0-.1,0-.2,0-.3,0-.5.1-.7.7-1.2,1.6-1.5.3-.1.5-.4.6-.7,0-.4.1-.9.1-1.4,0-1.2.8-1.8,2.4-1.9,0,0,.2,0,.2,0,0,0,0,0,.1,0,0,0,.2,0,.2,0,0,0,.1,0,.2.1,0,0,.1.1.2.2,0,0,.1.1.2.2,0,0,0,.1.1.2,0,0,0,.2,0,.3,0,0,0,0,0,.1,0,0,0,.2,0,.2-.2,1.7-.1,2.2,1.6,3.2,3,1.7,5.5,3,7.6,4,.3.1.7.1,1,0l7.8-4.1c.3-.2.5-.5.6-.8.3-1.8,1.4-2.6,3.3-2.3.5,0,.8.5.7,1-.2,1.1,0,1.9.6,2.3.1,0,.2.2.3.3,0,0,0,0,0,.1,0,0,0,0,0,.1,0,0,0,0,0,.1,0,0,0,.2,0,.3,0,0,0,.2,0,.2,0,0,0,.2,0,.2,0,0,0,.2-.1.2,0,0,0,0,0,.1,0,0,0,0,0,0,0,0,0,0,0,0-.1,0-.2.2-.4.2-.9.4-1.8.5-2.5.5-.4,0-.8,0-1.2.2l-5.4,2.8s0,0,0,.1c0,0,0,0,0,0,0,0,0,0,0,0,0,0,0,0,0,0l6.3,3.1c.4.2.8.1,1.1-.2.1-.1.3-.3.7-.6.7-.6,1.7-.4,2.8.8,0,0,.2.2.2.3,0,0,0,0,0,0,0,0,0,.2,0,.3,0,0,0,.2,0,.2,0,0,0,.2,0,.2,0,0,0,.2,0,.2,0,0,0,.1-.1.2,0,0,0,.2-.2.2Z"/>
      <path class="st0" d="M224.5,81.5c0,.3.2.5.3.8.3.5.6.9,1,1.3.6.5,1.3.9,2.1,1,.5,0,1,0,1.5,0,.3,0,.5-.2.7-.3s.4-.3.6-.4c.6-.5,1-1.2,1.2-1.9.2-.8.2-1.6,0-2.5-.6-2.3-2.8-3.6-4.9-3-.3,0-.5.2-.7.3-.4.2-.8.6-1.1,1,0,0-.1.2-.2.3-.2.3-.4.7-.5,1.1-.2.8-.2,1.6,0,2.5Z"/>
      <path class="st0" d="M214.2,84.4c.2.2.5.4.8.5.3.1.6.2.9.3,0,0,0,0,.1,0,.5,0,.9,0,1.4-.2.6-.3,1.2-.7,1.6-1.4s.3-.4.4-.7c.2-.5.3-1,.4-1.6,0-.6,0-1.1-.2-1.6s-.4-.9-.6-1.3c-.6-.8-1.4-1.3-2.3-1.3-.7,0-1.4.2-2,.6-1,.7-1.6,1.8-1.7,3.2,0,.3,0,.6,0,.8.1,1.1.6,2,1.3,2.6Z"/>
      <path class="st0" d="M221.1,88.4s0,0,0,0c0,.2.2.3.3.5.4.5,1,.9,1.6.9.5,0,1-.3,1.4-.7.3-.4.5-1,.5-1.7,0-.9-.5-1.6-1.1-2-.3-.2-.6-.2-.9-.2,0,0,0,0,0,0-.1,0-.3,0-.4,0-.3,0-.5.2-.7.4-.5.4-.8,1.2-.8,2,0,.3,0,.6.2.9Z"/>
    </g>
    <path class="st0" d="M753.1,118.3c0,5.7,0,11.5.1,17.2,0,4,0,6.6,0,7.9,0,2-1.3,3.2-3.5,3.6-.1,0-4.2,0-12.3,0-3,0-4.5-1.4-4.5-4.3,0-9.5,0-20.3.2-32.5,0-.6-.4-1.1-1-1.1h0c-8.8-.1-15.6-.2-20.4-.3-1.8,0-2.7.7-2.7,2.3,0,10.6,0,21,0,31.2,0,2.8-.8,4.7-3.8,4.8-7.5.1-11.9,0-13.1,0-2.1-.2-3.2-1.4-3.2-3.6-.2-14.2-.3-28.6-.3-43.1,0-3.4,0-6.7.1-10.1v-20.6c.1-5,.2-10,.3-15.1.3-2.6,1.5-4.6,4.4-4.5,3.6.1,7.1.1,10.7,0,2,0,3.4.4,4.1,1.3.8,1,1.1,2.4.9,4.3v11s0,19.1,0,19.1c0,.7.6,1.3,1.3,1.3h21.2c.8,0,1.5-.7,1.5-1.5,0-7.5,0-13.7,0-18.6s0-11.2,0-12.9c0-3.6,2.3-4.3,5.8-4.1.6,0,4.2,0,10.9,0,3,0,3.6,2.7,3.6,5.3,0,11.6,0,23.2.1,34.7-.2,13-.2,22-.1,27.9Z"/>
    <path class="st0" d="M674.8,137.2c-5.5,7.1-13.1,10.9-22.8,11.4-9,.4-17.2-2.1-24.6-7.7-4.2-3.2-5.7-7.7-7.8-12.2-.1-.3-.2-.7-.3-1-.6-3.1-2-9.5,2.7-9.6,8.4-.1,12.9-.2,13.5-.2,1.2,0,2.2.7,2.7,1.7,1,2.3,2.2,5.2,4.4,6.8,4.2,3.1,8.8,3.3,13.8.8,4.6-2.3,5.8-5.8,3.5-10.6-.6-1.3-2.6-2.8-5.9-4.5-5.8-3-11.8-6.1-17.9-9.3-5.2-2.7-9.3-6.6-12.3-11.5-2.9-4.8-4.2-10.3-3.8-16.3.7-10.8,6.6-18.7,17.8-23.7.3,0,.4-.2.4-.3l5.7-1.6c17.7-2.1,33.3,8.2,35.4,26.3.2,1.3-.4,2.5-1.7,3.5-.2.2-.5.3-.8.3-1.4,0-4.9,0-10.6.2-1.6,0-3.3-.6-5-1.8-.2-.2-.4-.4-.5-.7l-1.7-4c0-.2-.2-.3-.4-.5-5.7-4.2-9.1-5.8-15.1-2-5.4,3.3-3.9,8.1-.5,12.5.4.5.8.9,1.4,1.2,8.7,5.2,15.9,8.5,23.6,12.4,5.5,2.8,10.7,10.6,11.8,16.6,1.8,9.4.2,17.3-4.7,23.7Z"/>
    <path class="st0" d="M613.2,137.4c-1.4.6-3,.9-5,.9-3.9,0-7.4,0-10.6,0-2.2,0-3.7-.8-4.6-2.6-4.6-8.8-9.6-18.7-15.1-29.8-.9-1.8-2.5-2.5-4.9-2-.4,0-.8.4-.9.9-1.1,3.8-.3,8-.2,11.9-.2.5-.2,1,0,1.5,0,4.3,0,8.7-.2,13-.2,3.5.2,6.6-3.8,6.7-2.6,0-6.5.2-11.8.3-4.6.1-4.6-3.8-3.6-7.4-.2,0-.3.2-.5.3l.2-44.1c.2-.6.2-.9,0-.9h0l.2-42.2c0-1.5,1.2-2.7,2.7-2.7h4.7s1.7,0,1.7,0h13.8c.3.1.6.2,1,.1,6-.2,10.5,0,13.7.7,11,2.4,18.2,9,21.6,19.6.4,1.2.6,2.9.6,5.1,0,0,0,0,.1,0,0,0,0,0,.1.1.9,9.1-.8,17.7-5.1,25.7-.2.3-.5.5-.9.5-1.7,2.6-3.9,4.5-6.5,6-1.1.6-1.5,2-1,3.1l12,24.2c-.1,0,0,.4.4,1,1.5,2.3,2.5,4.8,3,7.4.2,1.1-.4,2.2-1.4,2.6Z"/>
    <path class="st0" d="M784.9,77.9c0,.3-.2.7-.5.8-.3.1-.6.2-.9.2.5,27.5.5,51.6,0,72.3,0,2.3-2,3.4-4.3,3.5-2.9,0-5.8,0-8.7-.1-.1,0-.3,0-.4,0-.6,0-1.1,0-1.7,0-1.5,0-2.7-1.3-2.7-2.9v-72.6c0,0-1.9-.4-1.9-.4-.3,0-.5-.3-.5-.7.3-6.9.9-11.6,7.1-14.6.5-.2.9-.7,1-1.3v-.4c.2-.6.6-1.1,1.1-1.4,4.7-2.8,9.7-6.4,6.9-12.5-3.7-8.3-14.6-4.7-15.4,3.3,0,.3-.3.6-.7.5-.1,0-.3,0-.4-.2-.8-.9-1.2-2-1.2-3.2-.2-7.7,7.7-11.8,14.6-10.1,8.6,2.1,12.4,12.4,7.2,19.6-1.5,2.1-3.3,3.7-5.4,5-.2,0-.2.3-.1.5,0,0,0,.1.2.2,6.2,2.6,6.8,7.9,6.9,14.5Z"/>
  </g>
  <g>
    <path class="st1" d="M177.8,97.6l-.2-.3c-.4-.6-1.2-.8-1.8-.5l-36.7,20.2s0,0,0,0c-.1,0-.2,0-.2-.2l-.3-1.3c0-.3-.4-.5-.7-.5l-23,3.9h0c0,0-.1,0-.1,0l-.4-6.6c0-.2,0-.3.2-.3,2-.3,4.3-.5,6.9-.6,6.9-.2,13.3-.4,19.5,1.8.2,0,.5,0,.7-.2,5.1-5.6,8.6-11.9,10.5-19,.8-2.7,1.2-5.6,1.4-8.5.2-3.4.1-6.3-.2-8.6-1.5-12.3-6.8-22.7-15.8-31.2-.1-.1-.3-.2-.5-.2l-23.5-1.9c0,0-.2,0-.2-.2l-.3-5.3c0-.2.1-.3.3-.3l4.7-.3c.1,0,.3,0,.4,0,1.2.6,2.5.9,3.7.9,2.6,0,5.2-.3,7.8-1,0,0,0,0,0,0,0,0,0-.2,0-.3l-4.5-4c0,0,0-.2,0-.3l4.4-5c0,0,0-.1,0-.2,0-.2-.1-.3-.3-.2-.3,0-1.3.2-2.9.6-1.1.2-2.7.2-4.7,0-.2,0-.4,0-.6-.1-2.9-1.2-5.4-.8-8.4-.5,0,0,0,0-.1,0-.1,0-.2-.2,0-.3.9-1.7-.5-3-2.1-2.3-.1,0-.2.1-.3.2-.5.7-.6,1.3-.2,1.8,0,.1.1.3.1.4l-.2,15.8h0c0,.2-.2.3-.3.3l-3.4-.3c-.2,0-.4-.1-.6-.3-1.4-2.1-2.8-4-4.3-5.6,0,0-.1,0-.2,0l-27-2.2s0,0,0,0v-3.4c0,0,0-.1.1-.1h4.2c.2,0,.3-.1.4-.3.5-1.9,1.1-4.1,1.6-6.6.2-.8.5-1.7.9-2.5,0-.1,0-.3.1-.4,0-.5-.4-.9-.9-.9h-7.1c0,0-.2,0-.2-.1l-.3-4.9h0c0-.1,0-.2.2-.2h16.8c.2,0,.3-.2.2-.4l-1-5.9c0,0,0-.1,0-.2l.9-6h0c0-.1,0-.2-.2-.2h-16.5c-.2,0-.3-.1-.3-.3,0-.4.2-.8.1-1.3-.4-1.5-2.4-1.5-2.8,0-.1.4.2.9.3,1.3,0,.2,0,.4,0,.6l-.3,17.3c0,.1-.1.3-.3.3h-7.6c-.1,0-.2,0-.3,0-.3.2-.4.6-.2.9.6.9,1,2,1.3,3.2.6,2.4,1.1,4.5,1.7,6.2,0,.2.2.3.4.3h4.3c0,0,.1,0,.1.1v3.1s0,0,0,0c0,0,0,.1-.1,0l-37.4-3h0c-.5,0-.9.4-.9.9h0c0,.7.4,1.2.9,1.2l2.8.2c.2,0,.4.1.5.3,3.2,4.4,5.7,8.9,7.5,13.4,0,0,0,0,0,0,0,0,0,.2-.2.2l-15.7-1.2h0c-.5,0-1,.4-1,.9h0c0,.6.4,1.1,1,1.1h1.7c.2,0,.3.2.4.3,3.3,7.8,5.2,15.9,5.7,24.3.3,4.9.3,8.8,0,11.7-.5,4.4-1.1,8.1-1.8,11.3-1.2,5.1-3,10.1-5.2,14.8,0,0,0,0,0,0-.2.3-.5.4-.8.3-.1,0-.2-.3-.3-.6-.7-3-1.8-7.8-3.3-14.1-.6-2.5-.8-3.8-.8-4,0-.1,0-.3.2-.4.5-.9.5-1.6-.2-2.2-.7-.6-1.5-.7-2.4,0-.1,0-.2.2-.3.3-.2.6-.2,1.2,0,1.9,0,0,0,0,0,0,0,.1,0,.2-.2.2-2.9.1-5.2.6-6.9,1.4-2.2,1-3.5,1.7-3.9,1.9-2.4,1.4-6.6,2.5-9.2,1.8,0,0,0,0,0,0,0,0-.1.1-.1.2.4,1.5,1,3.2,1.7,4.8.4.9.8,2,.9,2.9.3,2.4.7,4.7,1.3,6.9,0,.1.2.2.3.2,2.4.2,4.3,0,5.7-.5,1.6-.6,2.7-.9,3.9-1.6,1.6-.8,2.9-1.5,4.1-2.1,1.9-.8,4-1.1,6.4-.8.1,0,.2.1.3.3l1.8,8.1h0c0,.1,0,.2-.2.2l-3.4-.3s0,0,0,0c-.4,0-.7.3-.7.7,0,3,0,6,.2,8.9.3,6,.5,9.9.7,11.7,0,1.3-.1,1.9,1.1,2.4,1.6.7,4,1.7,7.2,3,.2,0,.4.3.3.5,0,2,0,3.7.3,5.3.6,4.8,2.9,9.2,6.5,12.5,0,0,0,0,0,.1,0,0,0,0-.2,0-3.5-.9-7-1-10.5-.2-2.5.6-4.8,1.5-7,2.6-1.7.9-3.2,1.7-4.7,2.5-.1,0-.2.2-.1.3,0,.1.2.2.3.2,3.9-.7,8.4-1.5,12-.3.9.3,1.6.7,2,1.1,1.8,1.9,3.3,3.4,5.8,4,3.4.8,6.9.6,10.5-.6,2-.7,3.1-1,3.4-1.1,4.2-1,8.2-.6,12.2.9,2.8,1.1,5,2.1,7.6,2.8,4.9,1.2,9.6,1.5,14.3.9,4-.5,8.5-1.7,13.3-3.4,1.9-.6,3.4-1.1,4.7-1.2,2.4-.3,4.7-.3,6.9,0,4.9.7,8.9,3,13.4,3.4,7.6.7,14.9-.4,21.3-4.7,1.6-1.1,5.1-3.4,5.3-4.8,0,0,0,0,0-.1,0-.1-.2-.2-.3-.1-2.3.9-4.8,1.8-7.4,1.8-2.2,0-3.5,0-3.8,0-3.5-.4-6.8-1.5-9.8-3.5,0,0,0,0,0,0,0,0,0,0,0,0,3.2-2.6,5.8-5.7,7.9-9.2,1.8-3.1,3.2-6.9,4-11.4,1.1-5.5,1.3-11.2.5-16.9,0-.1,0-.3.1-.3l37.3-24.1h0c.6-.4.7-1.2.4-1.7ZM82.8,10.7c0,.7-.6,1.3-1.4,1.3h-.9c0,0-.2,0-.2-.2v-2.5c0,0,0-.2.2-.2h.9c.8,0,1.4.6,1.4,1.3v.2ZM68.9,136.4c0,.1,0,.2-.2.2-2.7,0-5.1-.5-7.3-1.3-3.3-1.2-5.2-4.4-6.2-7.6,0-.2-.2-1.1-.5-2.8,0-.1-.1-.3-.3-.3-.2,0-.5,0-.9,0h0c-.3,0-.6-.3-.6-.6v-5.5c0,0,0-.2,0-.3l-.2-.4s0,0,0,0c0,0,0-.1.1-.1l16.1-.9h0c.1,0,.2,0,.2.2l-.2,19.4ZM109.1,119.7c0,0,0,.2-.2.2l-12.7,2.2c-.2,0-.3.1-.3.3-.4.9-.5,2.4-1,3.6-1.3,3.2-3.5,6.4-6.5,8.2-1,.6-2.5,1.1-4.4,1.4-2.9.5-5.6.9-8.2,1.1h0c-.1,0-.2-.1-.2-.2l-.5-19.4h0c0-.2.1-.2.2-.2l9.8.3c.3,0,.5.2.5.5.4,1.8,2.6.4,3.4.1.2,0,.4-.1.6-.1.2,0,.8,0,1.7.1,3.2.4,6.4,1,9.7,2,.2,0,.5,0,.6-.2,2-1.9,3.7-4,5.2-6.2,0-.1.2-.2.4-.3l1.8-.3h0c.1,0,.2,0,.2.2l-.2,6.9Z"/>
    <path class="st1" d="M82.8,10.6v.2c0,.7-.6,1.3-1.4,1.3h-.9c0,0-.2,0-.2-.2v-2.5c0,0,0-.2.2-.2h.9c.8,0,1.4.6,1.4,1.3Z"/>
  </g>
</svg>